<mxfile host="app.diagrams.net" modified="2024-04-19T16:07:01.631Z" agent="Mozilla/5.0 (Windows NT 10.0; Win64; x64) AppleWebKit/537.36 (KHTML, like Gecko) Chrome/123.0.0.0 Safari/537.36 Edg/123.0.0.0" version="24.2.5" etag="aPTTWnmjQ-gcWp--KJ9B" type="github">
  <diagram name="Страница — 1" id="AbZK7o4gavkavLPza72t">
    <mxGraphModel>
      <root>
        <mxCell id="0" />
        <mxCell id="1" parent="0" />
      </root>
    </mxGraphModel>
  </diagram>
</mxfile>
